<svg xmlns="http://www.w3.org/2000/svg" version="1.1"> 
  <polyline points=" 60.0,60.0 60.0,140.0 140.0,140.0 140.0,104.0 140.15001,102.0 140.59792,100.0 141.35284,98.0 142.0,96.769615 142.45944,96.0 143.97188,94.0 144.0,93.96887 145.94716,92.0 146.0,91.95437 148.0,90.323906 148.41833,90.0 150.0,88.92324 151.41524,88.0 152.0,87.665565 154.0,86.54709 154.94162,86.0 156.0,85.372215 158.0,84.0 160.0,82.35505 160.38805,82.0 162.0,80.38805 162.35506,80.0 164.0,78.0 165.37222,76.0 166.0,74.94162 166.52989,74.0 167.49318,72.0 168.0,70.73291 168.28336,70.0 168.91245,68.0 169.39328,66.0 169.732,64.0 169.93324,62.0 170.0,60.0 169.93324,58.0 169.732,56.0 169.39328,54.0 168.91245,52.0 168.28336,50.0 168.0,49.26709 167.49318,48.0 166.52989,46.0 166.0,45.058376 165.37222,44.0 164.0,42.0 162.35506,40.0 162.0,39.61195 160.38805,38.0 160.0,37.644947 158.0,36.0 156.0,34.62778 154.94162,34.0 154.0,33.470116 152.0,32.506817 150.73291,32.0 150.0,31.716644 148.0,31.087551 146.0,30.606714 144.0,30.268007 142.0,30.066751 140.0,30.0 138.0,30.066751 136.0,30.268007 134.0,30.606714 132.0,31.087551 130.0,31.716644 129.26709,32.0 128.0,32.506817 126.0,33.470116 125.05838,34.0 124.0,34.62778 122.0,36.0 120.0,37.644947 119.61195,38.0 118.0,39.61195 117.64495,40.0 116.0,42.0 114.627785,44.0 114.0,45.058376 113.45291,46.0 112.334435,48.0 112.0,48.584766 111.07676,50.0 110.0,51.581657 109.676094,52.0 108.04563,54.0 108.0,54.052845 106.03113,56.0 106.0,56.028126 104.0,57.540554 103.230385,58.0 102.0,58.64716 100.0,59.402084 98.0,59.849995 96.0,60.0 60.0,60.0" style="stroke:rgb(0,0,255);stroke-width:1;fill:none;"/> 
</svg> 